Coordinates
version=1
nRows=4
nColumns=63
inDegrees=yes

Units are S.I. units (second, meters, Newtons, ...)
If the header above contains a line with 'inDegrees', this indicates whether rotational values are in degrees (yes) or radians (no).

endheader
time	pelvis_tilt	pelvis_list	pelvis_rotation	pelvis_tx	pelvis_ty	pelvis_tz	hip_flexion_r	hip_adduction_r	hip_rotation_r	knee_angle_r	knee_angle_r_beta	ankle_angle_r	subtalar_angle_r	mtp_angle_r	hip_flexion_l	hip_adduction_l	hip_rotation_l	knee_angle_l	knee_angle_l_beta	ankle_angle_l	subtalar_angle_l	mtp_angle_l	L5_S1_Flex_Ext	L5_S1_Lat_Bending	L5_S1_axial_rotation	L4_L5_Flex_Ext	L4_L5_Lat_Bending	L4_L5_axial_rotation	L3_L4_Flex_Ext	L3_L4_Lat_Bending	L3_L4_axial_rotation	L2_L3_Flex_Ext	L2_L3_Lat_Bending	L2_L3_axial_rotation	L1_L2_Flex_Ext	L1_L2_Lat_Bending	L1_L2_axial_rotation	L1_T12_Flex_Ext	L1_T12_Lat_Bending	L1_T12_axial_rotation	Abs_r3	Abs_r2	Abs_r1	Abs_t1	Abs_t2	neck_flexion	neck_bending	neck_rotation	arm_flex_r	arm_add_r	arm_rot_r	elbow_flex_r	pro_sup_r	wrist_flex_r	wrist_dev_r	arm_flex_l	arm_add_l	arm_rot_l	elbow_flex_l	pro_sup_l	wrist_flex_l	wrist_dev_l
      0.00000000	     -0.10035466	     -5.17936405	     88.76399903	      0.09491756	      1.05009579	      0.34625436	      8.30696164	      0.00802506	    -16.67097710	     13.76605640	      0.24026301	     40.37382158	     16.55741492	      0.00000000	     10.17551984	     -1.08929531	     -6.21470260	     13.35471935	      0.23308382	     40.15235550	     10.61109423	      0.00000000	      0.09152268	      0.30099357	     -0.03702315	      0.16996677	      0.40032145	     -0.03933710	      0.15036261	      0.73183577	     -0.03933710	      0.10460127	      0.73183577	     -0.03239526	      0.08498796	      0.61378609	     -0.03008131	      0.05229606	      0.46623904	     -0.02776736	      0.65373736	      3.40489949	     -0.20591167	      0.00000000	      0.00000000	     28.06665904	     -7.25745939	      6.25019005	     13.39196831	    -14.18509441	     48.69617651	     56.19512426	     89.06494556	      5.25764055	      3.21688068	     26.09655760	    -14.52447852	     86.86088379	     53.50638745	     76.18010073	    -32.94236207	     -5.73528661
      0.01694915	     -0.73027332	     -4.84107852	     87.37550230	      0.09672371	      1.05058726	      0.34407915	      8.07332371	     -0.67270145	    -16.82582413	     14.48741083	      0.25285302	     40.71115838	     17.88825511	      0.00000000	      9.42233417	     -0.65656463	     -7.76144226	     13.37014387	      0.23335303	     39.78191882	     11.11967624	      0.00000000	      0.10549719	      0.23965596	      0.13270930	      0.19591882	      0.31874243	      0.14100363	      0.17332133	      0.58269951	      0.14100363	      0.12057273	      0.58269951	      0.11612064	      0.09796469	      0.48870644	      0.10782631	      0.06028109	      0.37122709	      0.09953198	      0.75355584	      2.71103619	      0.73808933	      0.00000000	      0.00000000	     27.87973106	     -7.01059744	      6.42857228	     13.14507348	    -13.96217982	     51.64590075	     54.54903215	     89.10047057	      5.40135844	      4.39005855	     25.00203869	    -13.94723723	     84.31732696	     54.05547741	     65.82566311	    -27.53368141	      5.33774418
      0.03389831	     -1.15929011	     -4.36621216	     86.15212589	      0.09859456	      1.05137276	      0.34221967	      7.62104352	     -0.98044086	    -15.73489166	     14.73133918	      0.25711037	     40.75719815	     17.87013119	      0.00000000	      8.58957350	     -0.43897257	     -9.64404121	     13.34799213	      0.23296641	     39.60994545	     12.16638273	      0.00000000	      0.08378781	      0.19212146	      0.29816823	      0.15560233	      0.25552155	      0.31680374	      0.13765499	      0.46712412	      0.31680374	      0.09576108	      0.46712412	      0.26089720	      0.07780536	      0.39177409	      0.24226168	      0.04787635	      0.29759615	      0.22362617	      0.59848792	      2.17331641	      1.65832222	      0.00000000	      0.00000000	     27.73709652	     -6.90763057	      6.38075007	     13.12567334	    -14.07864201	     54.60752222	     53.38301082	     89.14279781	      5.43630189	      5.36657245	     24.70903518	    -13.22848808	     84.66260829	     53.32428774	     49.55753246	    -24.43305598	      7.18266732
      0.05084746	     -1.55118428	     -4.01018288	     85.08573854	      0.10031731	      1.05205195	      0.34049115	      7.32172553	     -1.26707339	    -14.67474732	     14.89241211	      0.25992162	     40.86080957	     17.92691247	      0.00000000	      7.91352827	     -0.10268179	    -10.34746277	     13.18744098	      0.23016427	     39.33823332	     11.80611171	      0.00000000	      0.07192966	      0.14415438	      0.44024844	      0.13358057	      0.19172533	      0.46776397	      0.11817324	      0.35049696	      0.46776397	      0.08220841	      0.35049696	      0.38521738	      0.06679388	      0.29395961	      0.35770186	      0.04110061	      0.22329513	      0.33018633	      0.51378636	      1.63070317	      2.44852974	      0.00000000	      0.00000000	     27.63847741	     -6.53330724	      6.45004705	     13.09709188	    -14.32361532	     57.16802566	     52.60620111	     89.21741171	      5.62442381	      6.31028377	     23.99715773	    -12.71825495	     83.77170201	     52.25640199	     47.37428250	    -20.79230030	     10.17075715
